<svg width="34" height="34" viewBox="0 0 34 34" fill="none" xmlns="http://www.w3.org/2000/svg">
<path d="M29 17C29 23.6274 23.6274 29 17 29C10.3726 29 5 23.6274 5 17C5 10.3726 10.3726 5 17 5C23.6274 5 29 10.3726 29 17ZM7.3011 17C7.3011 22.3566 11.6434 26.6989 17 26.6989C22.3566 26.6989 26.6989 22.3566 26.6989 17C26.6989 11.6434 22.3566 7.3011 17 7.3011C11.6434 7.3011 7.3011 11.6434 7.3011 17Z" fill="#66B9E8"/>
<path d="M17 34L17 17L21 21L17 34Z" fill="#1D3B70"/>
<path d="M34 17H17L21 21L34 17Z" fill="#1D3B70"/>
<path d="M0 17H17L13 21L0 17Z" fill="#1D3B70"/>
<path d="M17 34V17L13 21L17 34Z" fill="#1B4E9B"/>
<path d="M17 0V17L13 13L17 0Z" fill="#E9532F"/>
<path d="M0 17H17L13 13L0 17Z" fill="#1B4E9B"/>
<path d="M34 17H17L21 13L34 17Z" fill="#1B4E9B"/>
<path d="M17 0V17L21 13L17 0Z" fill="#DB4F2E"/>
</svg>
